<svg xmlns="http://www.w3.org/2000/svg" xmlns:xlink="http://www.w3.org/1999/xlink" version="1.1" x="0px" y="0px" viewBox="0 0 100 125" enable-background="new 0 0 100 100" xml:space="preserve">
  <path d="M90.591,68c3.409-5,3.207-8.818,3.8-10.533C81,61,64.267,63.625,47.851,63.625C32.735,63.625,15,61,4.766,57.58  C5.232,59.948,6,65,8.586,68H25v4H10l1,3h16v3H12.67c8.241,11,21.783,19.943,37.037,19.975C62,98,64,97,68.577,94H37v-3h18v-4H42v-4  c0,0,33,0,36,0s5-5,5-5H48v-3h25v-4H46v-3H90.591z"/>
  <path d="M57,51h11v-3H52v-5h28v-5H59v-4h19v-3H51v-5h12v-3H45v-5h24v-3H48v-4h11V1.247C58,1.084,49.648,1,48.051,1  C23.075,1,3.765,22.937,3.765,47.913c0,2.252,0.374,4.635,0.777,7.07C18,58,32.635,60,47.788,60C64.377,60,80,59,94.814,55.605  C94.944,55.066,95.077,55,95.101,55H57V51z M28.327,44.201c-5.592,0-10.125-4.534-10.125-10.125c0-5.593,4.534-10.125,10.125-10.125  s10.125,4.533,10.125,10.125C38.453,39.667,33.919,44.201,28.327,44.201z"/>
  <text x="0" y="115" fill="#000000" font-size="5px" font-weight="bold" font-family="'Helvetica Neue', Helvetica, Arial-Unicode, Arial, Sans-serif">Created by Nichole Kazarinoff</text>
  <text x="0" y="120" fill="#000000" font-size="5px" font-weight="bold" font-family="'Helvetica Neue', Helvetica, Arial-Unicode, Arial, Sans-serif">from the Noun Project</text>
</svg>
